<svg width="148" height="46" viewBox="0 0 148 46" fill="none" xmlns="http://www.w3.org/2000/svg">
<path d="M1.44141 19.3611H5.30874L10.1889 25.4076L15.0691 19.3611H18.9365V34.7076H14.3018V26.4512L10.1889 31.5155L6.07606 26.4512V34.7076H1.44141V19.3611Z" fill="#240A49"/>
<path d="M37.731 34.7076V19.3611H42.3656V34.7076H37.731ZM22.7527 34.7076V19.3611H27.3874V23.6581H30.0884C30.8864 23.6581 31.6128 23.7809 32.2676 24.0264C32.9224 24.2515 33.4544 24.5584 33.8636 24.9472C34.2933 25.3155 34.6514 25.7452 34.9379 26.2363C35.2244 26.7274 35.429 27.2185 35.5518 27.7096C35.6745 28.1802 35.7359 28.6508 35.7359 29.1215C35.7359 29.7149 35.6336 30.3287 35.429 30.9631C35.2244 31.5769 34.9072 32.1703 34.4775 32.7433C34.0682 33.3162 33.4748 33.7868 32.6973 34.1551C31.9402 34.5234 31.0706 34.7076 30.0884 34.7076H22.7527ZM27.3874 27.5868V30.7789H29.5052C30.7739 30.7789 31.4082 30.2366 31.4082 29.1522C31.4082 28.1086 30.7739 27.5868 29.5052 27.5868H27.3874Z" fill="#240A49"/>
<path d="M46.1622 34.7076V19.3611H53.682C55.6054 19.3611 57.0583 19.8419 58.0404 20.8036C59.0226 21.7449 59.5137 22.8396 59.5137 24.0878C59.5137 25.0086 59.2272 25.8271 58.6543 26.5432C59.882 27.4845 60.4959 28.6304 60.4959 29.9809C60.4959 31.2495 60.0253 32.3545 59.084 33.2957C58.1632 34.237 56.7513 34.7076 54.8484 34.7076H46.1622ZM50.7969 30.9631H54.5107C54.8995 30.9631 55.2269 30.8505 55.4929 30.6254C55.7589 30.3799 55.8919 30.0525 55.8919 29.6432C55.8919 29.234 55.7589 28.9168 55.4929 28.6918C55.2269 28.4667 54.8995 28.3541 54.5107 28.3541H50.7969V30.9631ZM50.7969 25.3155H53.5899C54.4698 25.3155 54.9097 24.9063 54.9097 24.0878C54.9097 23.2693 54.4698 22.8601 53.5899 22.8601H50.7969V25.3155Z" fill="#240A49"/>
<path d="M63.3072 19.3611H67.1745L72.0547 25.4076L76.9349 19.3611H80.8022V34.7076H76.1676V26.4512L72.0547 31.5155L67.9418 26.4512V34.7076H63.3072V19.3611Z" fill="#240A49"/>
<path d="M91.8621 35.0452C89.5499 35.0452 87.606 34.3188 86.0304 32.866C84.4753 31.3928 83.6977 29.4489 83.6977 27.0343C83.6977 24.7426 84.465 22.8396 85.9997 21.3254C87.5343 19.7908 89.4578 19.0234 91.77 19.0234C93.9185 19.0234 95.7294 19.6782 97.2027 20.9878C98.6759 22.2974 99.4126 24.139 99.4126 26.5126C99.4126 27.106 99.3819 27.6482 99.3205 28.1393H88.1789C88.3017 29.0192 88.7211 29.6944 89.4373 30.165C90.1535 30.6152 90.9822 30.8403 91.9235 30.8403C92.7624 30.8403 93.5093 30.6766 94.164 30.3492C94.8188 30.0013 95.3099 29.5819 95.6373 29.0908L99.0749 31.669C98.3383 32.7126 97.3459 33.5413 96.0977 34.1551C94.8495 34.7485 93.4376 35.0452 91.8621 35.0452ZM88.3017 25.1007H94.8086C94.6244 24.3436 94.2357 23.7706 93.6423 23.3819C93.0489 22.9931 92.3838 22.7987 91.6472 22.7987C90.8697 22.7987 90.1637 22.9931 89.5294 23.3819C88.8951 23.7502 88.4858 24.3231 88.3017 25.1007Z" fill="#240A49"/>
<path d="M109.577 35.0452C107.285 35.0452 105.351 34.2881 103.776 32.7739C102.2 31.2598 101.412 29.3465 101.412 27.0343C101.412 24.7221 102.2 22.8089 103.776 21.2947C105.351 19.7805 107.285 19.0234 109.577 19.0234C111.152 19.0234 112.605 19.4327 113.935 20.2512C115.265 21.0696 116.257 22.1541 116.912 23.5046L112.861 25.6531C112.185 24.1185 111.091 23.3512 109.577 23.3512C108.594 23.3512 107.766 23.699 107.09 24.3947C106.415 25.0904 106.078 25.9703 106.078 27.0343C106.078 28.0984 106.415 28.9782 107.09 29.6739C107.766 30.3697 108.594 30.7175 109.577 30.7175C111.091 30.7175 112.185 29.9502 112.861 28.4155L116.912 30.564C116.257 31.9145 115.265 32.999 113.935 33.8175C112.605 34.636 111.152 35.0452 109.577 35.0452Z" fill="#240A49"/>
<path d="M122.12 34.7076V23.3819H118.038V19.3611H131.143V23.3819H126.754V34.7076H122.12Z" fill="#240A49"/>
<path d="M140.449 35.0452C138.137 35.0452 136.193 34.3188 134.618 32.866C133.063 31.3928 132.285 29.4489 132.285 27.0343C132.285 24.7426 133.052 22.8396 134.587 21.3254C136.122 19.7908 138.045 19.0234 140.357 19.0234C142.506 19.0234 144.317 19.6782 145.79 20.9878C147.263 22.2974 148 24.139 148 26.5126C148 27.106 147.969 27.6482 147.908 28.1393H136.766C136.889 29.0192 137.309 29.6944 138.025 30.165C138.741 30.6152 139.57 30.8403 140.511 30.8403C141.35 30.8403 142.097 30.6766 142.751 30.3492C143.406 30.0013 143.897 29.5819 144.225 29.0908L147.662 31.669C146.926 32.7126 145.933 33.5413 144.685 34.1551C143.437 34.7485 142.025 35.0452 140.449 35.0452ZM136.889 25.1007H143.396C143.212 24.3436 142.823 23.7706 142.23 23.3819C141.636 22.9931 140.971 22.7987 140.235 22.7987C139.457 22.7987 138.751 22.9931 138.117 23.3819C137.482 23.7502 137.073 24.3231 136.889 25.1007Z" fill="#240A49"/>
<path d="M0 10.2279H0.213424C0.979562 10.2279 1.36263 9.57125 1.36263 8.25787V4.16998H8.5698V10.2279H9.91601V14.3815H7.7161V12.3786H2.19991V14.3815H0V10.2279ZM3.84163 6.32064V8.35637C3.84163 9.15535 3.71577 9.7792 3.46404 10.2279H6.09079V6.32064H3.84163Z" fill="#EE9252"/>
<path d="M18.0661 11.3279C17.2234 12.1488 16.2055 12.5592 15.0125 12.5592C13.8195 12.5592 12.8017 12.1488 11.9589 11.3279C11.1162 10.4961 10.6948 9.47822 10.6948 8.27429C10.6948 7.07036 11.1162 6.05796 11.9589 5.2371C12.8017 4.40529 13.8195 3.98939 15.0125 3.98939C16.2055 3.98939 17.2234 4.40529 18.0661 5.2371C18.9089 6.05796 19.3303 7.07036 19.3303 8.27429C19.3303 9.47822 18.9089 10.4961 18.0661 11.3279ZM13.6992 9.70259C14.0494 10.0638 14.4872 10.2444 15.0125 10.2444C15.5379 10.2444 15.9702 10.0638 16.3095 9.70259C16.6597 9.34141 16.8349 8.86531 16.8349 8.27429C16.8349 7.68327 16.6597 7.20717 16.3095 6.84599C15.9702 6.48481 15.5379 6.30422 15.0125 6.30422C14.4872 6.30422 14.0494 6.48481 13.6992 6.84599C13.3599 7.20717 13.1902 7.68327 13.1902 8.27429C13.1902 8.86531 13.3599 9.34141 13.6992 9.70259Z" fill="#EE9252"/>
<path d="M24.8611 12.5592C23.4601 12.5592 22.393 12.1104 21.6597 11.213C20.9374 10.3155 20.5762 9.05137 20.5762 7.42059V7.04299C20.5762 4.95253 20.9976 3.42026 21.8403 2.44617C22.6831 1.46113 23.9417 0.815389 25.6163 0.508934L28.44 0V2.34767L26.158 2.7581C25.2606 2.92227 24.5601 3.19042 24.0566 3.56254C23.5532 3.93466 23.2522 4.47096 23.1537 5.17143C23.7447 4.66797 24.4725 4.41624 25.3372 4.41624C26.5192 4.41624 27.4495 4.78289 28.1281 5.51619C28.8176 6.24949 29.1624 7.16886 29.1624 8.27429C29.1624 9.47822 28.7465 10.4961 27.9147 11.3279C27.0829 12.1488 26.065 12.5592 24.8611 12.5592ZM23.5313 9.75184C23.8706 10.0802 24.3084 10.2444 24.8447 10.2444C25.381 10.2444 25.8188 10.0802 26.158 9.75184C26.4973 9.42349 26.667 8.95287 26.667 8.33996C26.667 7.85838 26.4973 7.44248 26.158 7.09225C25.8188 6.74201 25.381 6.5669 24.8447 6.5669C24.3084 6.5669 23.8706 6.74201 23.5313 7.09225C23.2029 7.44248 23.0388 7.85838 23.0388 8.33996C23.0388 8.95287 23.2029 9.42349 23.5313 9.75184Z" fill="#EE9252"/>
<path d="M33.1942 15.8098H30.7152V4.16998H33.1942V4.99084C33.3694 4.72816 33.6594 4.49832 34.0644 4.30132C34.4693 4.09336 34.9235 3.98939 35.427 3.98939C36.4886 3.98939 37.3861 4.41076 38.1194 5.25352C38.8637 6.09627 39.2358 7.10319 39.2358 8.27429C39.2358 9.44538 38.8637 10.4523 38.1194 11.2951C37.3861 12.1378 36.4886 12.5592 35.427 12.5592C34.9235 12.5592 34.4693 12.4607 34.0644 12.2637C33.6594 12.0557 33.3694 11.8204 33.1942 11.5577V15.8098ZM33.5062 9.73542C33.8564 10.1185 34.3106 10.31 34.8688 10.31C35.427 10.31 35.8757 10.1185 36.215 9.73542C36.5652 9.35235 36.7404 8.86531 36.7404 8.27429C36.7404 7.68327 36.5652 7.19622 36.215 6.81315C35.8757 6.43008 35.427 6.23855 34.8688 6.23855C34.3106 6.23855 33.8564 6.43008 33.5062 6.81315C33.1669 7.19622 32.9972 7.68327 32.9972 8.27429C32.9972 8.86531 33.1669 9.35235 33.5062 9.73542Z" fill="#EE9252"/>
<path d="M47.646 11.3279C46.8033 12.1488 45.7854 12.5592 44.5924 12.5592C43.3994 12.5592 42.3816 12.1488 41.5388 11.3279C40.6961 10.4961 40.2747 9.47822 40.2747 8.27429C40.2747 7.07036 40.6961 6.05796 41.5388 5.2371C42.3816 4.40529 43.3994 3.98939 44.5924 3.98939C45.7854 3.98939 46.8033 4.40529 47.646 5.2371C48.4888 6.05796 48.9101 7.07036 48.9101 8.27429C48.9101 9.47822 48.4888 10.4961 47.646 11.3279ZM43.279 9.70259C43.6293 10.0638 44.0671 10.2444 44.5924 10.2444C45.1178 10.2444 45.5501 10.0638 45.8894 9.70259C46.2396 9.34141 46.4147 8.86531 46.4147 8.27429C46.4147 7.68327 46.2396 7.20717 45.8894 6.84599C45.5501 6.48481 45.1178 6.30422 44.5924 6.30422C44.0671 6.30422 43.6293 6.48481 43.279 6.84599C42.9398 7.20717 42.7701 7.68327 42.7701 8.27429C42.7701 8.86531 42.9398 9.34141 43.279 9.70259Z" fill="#EE9252"/>
<path d="M85.5268 41.0978L85.5268 37.4453C90.3354 39.9212 95.2463 41.1592 100.26 41.1592C105.273 41.1592 110.184 39.9212 114.992 37.4453L114.992 41.0978C110.225 43.7169 105.314 45.0265 100.26 45.0265C95.2054 45.0265 90.2945 43.7169 85.5268 41.0978Z" fill="#EE9252"/>
</svg>
